<svg preserveAspectRatio="none" overflow="visible" style="display: block;" width="176.616" height="33.3548" viewBox="0 0 176.616 33.3548" fill="none" xmlns="http://www.w3.org/2000/svg">
<g id="LOGOTIPIA">
<path id="Vector" d="M147.019 7.9766H138.261V12.7841H147.019C150.198 12.7841 151.782 14.3712 151.782 16.8675V18.5521H145.235C138.883 18.5521 135.9 21.8702 135.9 26.0973C135.9 30.3244 138.739 33.3548 144.083 33.3548C146.634 33.3548 149.375 32.682 151.062 29.9444H151.879V32.8258H157.171V17.4479C157.171 11.5823 154.137 7.98174 147.019 7.98174V7.9766ZM145.044 28.5987C142.735 28.5987 141.336 27.6844 141.336 25.7634C141.336 23.8425 142.828 22.8306 145.137 22.8306H151.776C151.776 27.1554 148.022 28.5987 145.039 28.5987H145.044Z" fill="#DCE3EC"/>
<path id="Vector_2" d="M89.0283 7.9766H80.27V12.7841H89.0283C92.2066 12.7841 93.7906 14.3712 93.7906 16.8675V18.5521H87.2437C80.8923 18.5521 77.9094 21.8702 77.9094 26.0973C77.9094 30.3244 80.7483 33.3548 86.0917 33.3548C88.6426 33.3548 91.3837 32.682 93.0706 29.9444H93.8883V32.8258H99.1803V17.4479C99.1803 11.5823 96.146 7.98174 89.0283 7.98174V7.9766ZM87.0586 28.5987C84.7494 28.5987 83.3506 27.6844 83.3506 25.7634C83.3506 23.8425 84.842 22.8306 87.1511 22.8306H93.7906C93.7906 27.1554 90.0363 28.5987 87.0534 28.5987H87.0586Z" fill="#DCE3EC"/>
<path id="Vector_3" d="M168.918 28.0182C168.434 28.0182 168.146 27.633 168.146 27.1554V12.7841H176.375V7.9766H168.146V0.477669H162.417V7.9766H158.421V12.7841H162.417V25.9072C162.417 30.3296 164.196 32.8258 167.76 32.8258H176.616V28.0182H168.918Z" fill="#DCE3EC"/>
<path id="Vector_4" d="M109.245 0H103.516V32.8258H109.245V0Z" fill="#DCE3EC"/>
<path id="Vector_5" d="M66.7957 27.1091V12.7841H75.0705V7.9766H66.7957V0.477669H61.0665V7.9766H45.0876C40.5619 7.9766 36.715 10.3341 36.715 15.0441C36.715 19.3688 40.3253 21.2898 44.6556 22.1116L48.4562 22.8306C50.719 23.2621 51.5368 24.1301 51.5368 25.5683C51.5368 27.633 49.2276 28.6449 46.9185 28.6449C44.3213 28.6449 41.6265 27.2992 41.6265 24.6078H36.2367C36.3807 31.0486 41.7242 33.3548 47.2116 33.3548C53.9025 33.3548 56.9831 29.893 56.9831 25.5683C56.9831 21.865 54.8179 19.415 50.5339 18.5521L44.5167 17.3503C42.8813 17.0113 42.1562 15.9583 42.1562 14.9003C42.1562 13.9398 43.0202 12.7841 44.6607 12.7841H61.0716V25.9072C61.0716 30.3296 62.9025 32.8258 66.4151 32.8258H75.2711V27.972H67.5722C67.0888 27.972 66.8008 27.5868 66.8008 27.1091H66.7957Z" fill="#DCE3EC"/>
<path id="Vector_6" d="M23.8219 7.49894C20.5973 7.49894 18.0927 8.45942 16.7453 10.817H15.8813V7.93552H10.5378V32.8309H16.267V20.1444C16.267 14.9516 18.2419 12.8406 22.0887 12.8406C25.9356 12.8406 27.0927 14.474 27.0927 18.4135V32.8309H32.8219V17.114C32.8219 10.5756 29.3556 7.49894 23.8219 7.49894Z" fill="#DCE3EC"/>
<path id="Vector_7" d="M5.72916 2.18983e-05H0V32.8258H5.72916V2.18983e-05Z" fill="#DCE3EC"/>
<path id="Vector_8" d="M126.952 18.5521L120.935 17.3503C119.299 17.0113 118.574 15.9583 118.574 14.9003C118.574 13.9398 119.438 12.7841 121.079 12.7841H130.32V7.9766H121.516C116.99 7.9766 113.143 10.3341 113.143 15.0441C113.143 19.3688 116.754 21.2898 121.084 22.1116L124.884 22.8306C127.147 23.2621 127.965 24.1301 127.965 25.5683C127.965 27.633 125.656 28.6449 123.347 28.6449C120.75 28.6449 118.055 27.2992 118.055 24.6078H112.665C112.809 31.0486 118.152 33.3548 123.64 33.3548C130.331 33.3548 133.411 29.893 133.411 25.5683C133.411 21.865 131.246 19.415 126.962 18.5521H126.952Z" fill="#DCE3EC"/>
</g>
</svg>
