<svg width="32" height="32" viewBox="0 0 32 32" fill="none" xmlns="http://www.w3.org/2000/svg">
<path d="M16 0C7.16089 0 0 7.16089 0 16C0 24.8391 7.16089 32 16 32C24.8391 32 32 24.8391 32 16C32 7.16089 24.8391 0 16 0ZM11.4702 24.8889H7.21778V12.9991H11.4702V24.8889ZM9.344 11.3636C8.17067 11.3636 7.21778 10.4107 7.21778 9.23733C7.21778 8.064 8.17067 7.11111 9.344 7.11111C10.5173 7.11111 11.4702 8.064 11.4702 9.23733C11.4702 10.4107 10.5173 11.3636 9.344 11.3636ZM24.7893 24.8889H21.2836C21.2836 24.8889 21.3049 17.9556 21.3191 17.7422C21.3404 17.5289 21.1271 15.7796 19.3351 15.7796C17.5431 15.7796 16.9813 17.0596 16.9813 18.0338V24.8889H13.6604V12.9991H16.9458V14.6489C16.9458 14.6489 17.4507 12.9849 20.4871 12.9849C22.9902 12.9849 24.7822 13.9591 24.7822 16.64C24.7893 18.1262 24.7893 24.8889 24.7893 24.8889Z" fill="#E05829"/>
</svg>
