<svg preserveAspectRatio="none" overflow="visible" style="display: block;" width="16" height="16" viewBox="0 0 16 16" fill="none" xmlns="http://www.w3.org/2000/svg">
<g id="Vector">
<path d="M11.6713 9.53812L11.6653 9.58811C10.1993 8.85746 10.046 8.76013 9.85667 9.04412C9.72533 9.24079 9.34267 9.68678 9.22733 9.81878C9.11067 9.94878 8.99467 9.95878 8.79667 9.86878C8.59667 9.76878 7.95467 9.55878 7.19467 8.87879C6.60267 8.3488 6.20533 7.69882 6.088 7.49882C5.89267 7.16149 6.30133 7.11349 6.67333 6.40951C6.74 6.26951 6.706 6.15951 6.65667 6.06018C6.60667 5.96018 6.20867 4.9802 6.042 4.58954C5.882 4.20021 5.71733 4.24955 5.594 4.24955C5.21 4.21621 4.92933 4.22154 4.682 4.47887C3.606 5.66152 3.87733 6.8815 4.798 8.17881C6.60733 10.5468 7.57133 10.9828 9.334 11.5881C9.81 11.7394 10.244 11.7181 10.5873 11.6687C10.97 11.6081 11.7653 11.1881 11.9313 10.7181C12.1013 10.2481 12.1013 9.85811 12.0513 9.76811C12.002 9.67811 11.8713 9.62811 11.6713 9.53812Z" fill="#DCE3EC"/>
<path d="M13.68 2.29958C8.554 -2.65566 0.0706667 0.938271 0.0673333 7.92881C0.0673333 9.32612 0.433333 10.6888 1.13067 11.8921L0 16L4.22333 14.8987C9.49333 17.7453 15.9973 13.9654 16 7.93281C16 5.81552 15.1733 3.82289 13.67 2.32558L13.68 2.29958ZM14.668 7.91081C14.664 12.9994 9.078 16.1773 4.66 13.58L4.42 13.4374L1.92 14.0874L2.59 11.6574L2.43067 11.4074C-0.318667 7.03083 2.84 1.31093 8.048 1.31093C9.81733 1.31093 11.478 2.00092 12.7287 3.2509C13.9787 4.49021 14.668 6.15084 14.668 7.91081Z" fill="#DCE3EC"/>
</g>
</svg>
